<svg width="29" height="28" viewBox="0 0 29 28" fill="none" xmlns="http://www.w3.org/2000/svg">
<path d="M14.3824 1.20323e-06C6.43608 -0.00321202 0 6.42965 0 14.3695C0 20.6482 4.02616 25.9853 9.63323 27.9454C10.3883 28.135 10.2727 27.5983 10.2727 27.232V24.7418C5.91232 25.2527 5.7356 22.3672 5.44319 21.8852C4.85196 20.8763 3.45421 20.6192 3.87193 20.1373C4.86481 19.6263 5.87698 20.2658 7.0498 21.9977C7.89809 23.2541 9.5529 23.042 10.3916 22.8331C10.5747 22.078 10.9667 21.4033 11.5065 20.8795C6.98875 20.0698 5.10581 17.3128 5.10581 14.0353C5.10581 12.4448 5.62956 10.9828 6.65779 9.80354C6.0023 7.85954 6.71884 6.19509 6.81524 5.94767C8.68212 5.78058 10.6229 7.28437 10.7739 7.40326C11.8343 7.11728 13.0457 6.96626 14.4017 6.96626C15.7641 6.96626 16.9787 7.12371 18.0487 7.4129C18.4117 7.13656 20.2112 5.84485 21.9463 6.0023C22.0395 6.24971 22.74 7.8756 22.123 9.7939C23.1641 10.9764 23.6943 12.4512 23.6943 14.045C23.6943 17.3289 21.7985 20.0891 17.2678 20.8859C17.6559 21.2676 17.964 21.7227 18.1742 22.2247C18.3844 22.7268 18.4925 23.2657 18.4921 23.81V27.4248C18.5178 27.714 18.4921 28 18.9741 28C24.6647 26.0817 28.7615 20.706 28.7615 14.3727C28.7615 6.42965 22.3222 1.20323e-06 14.3824 1.20323e-06Z" fill="white"/>
</svg>
