<svg width="28" height="28" viewBox="0 0 28 28" fill="none" xmlns="http://www.w3.org/2000/svg">
<path d="M14 28C6.279 28 0 21.721 0 14C0 6.279 6.27725 0 14 0C21.721 0 28 6.27725 28 14C28 21.7227 21.721 28 14 28ZM25.8072 15.9145C25.3977 15.7832 22.1042 14.805 18.3593 15.4053C19.3746 18.1761 20.152 21.0284 20.6833 23.9312C22.0396 23.0158 23.194 21.8322 24.0753 20.4534C24.9566 19.0746 25.546 17.5299 25.8072 15.9145ZM18.6707 25.025C18.4905 23.975 17.801 20.321 16.1228 15.9583C16.0948 15.9688 16.0685 15.974 16.0457 15.9862C9.29775 18.3383 6.874 23.0142 6.66225 23.4517C8.3404 24.7643 10.3398 25.6028 12.4522 25.8798C14.5646 26.1568 16.7127 25.8622 18.6725 25.0267L18.6707 25.025ZM5.1135 22.0115C5.3865 21.546 8.66775 16.1158 14.8313 14.1208C14.9872 14.0704 15.1442 14.0231 15.302 13.979C14.9975 13.2944 14.6748 12.6181 14.3342 11.9508C8.3685 13.7393 2.57075 13.6622 2.04575 13.657C2.0405 13.7778 2.0405 13.8985 2.0405 14.0227C2.0405 17.0905 3.206 19.8958 5.1135 22.0133V22.0115ZM2.29775 11.5658C2.83325 11.571 7.76125 11.5938 13.356 10.1115C12.0047 7.7267 10.5243 5.41736 8.9215 3.19375C7.24633 3.98331 5.77673 5.15003 4.62786 6.60251C3.47899 8.055 2.68206 9.75378 2.2995 11.5658H2.29775ZM11.2 2.3905C12.8373 4.62491 14.3279 6.96315 15.6625 9.3905C19.9167 7.79975 21.7157 5.376 21.9293 5.06975C20.4913 3.78801 18.7637 2.87456 16.8948 2.40787C15.0259 1.94119 13.0717 1.93523 11.2 2.3905ZM23.2593 6.45925C23.0072 6.79875 21 9.3695 16.5813 11.1737C16.8595 11.7425 17.129 12.3217 17.374 12.908C17.4615 13.1163 17.549 13.3175 17.6313 13.5258C21.6125 13.0288 25.5658 13.8267 25.9595 13.909C25.9338 11.191 24.9805 8.56328 23.2575 6.461L23.2593 6.45925Z" fill="white"/>
</svg>
